<svg width="154" height="35" viewBox="0 0 154 35" fill="none" xmlns="http://www.w3.org/2000/svg">
<path d="M20.0567 24.276C19.3207 24.276 18.6447 24.216 18.0287 24.096C17.4207 23.976 16.8767 23.828 16.3967 23.652C15.9167 23.476 15.5167 23.3 15.1967 23.124L14.9927 21.144C15.6087 21.512 16.3327 21.836 17.1647 22.116C18.0047 22.388 18.9167 22.524 19.9007 22.524C21.0847 22.524 21.9607 22.316 22.5287 21.9C23.0967 21.476 23.3807 20.844 23.3807 20.004V19.812C23.3807 19.26 23.2687 18.808 23.0447 18.456C22.8207 18.104 22.4407 17.808 21.9047 17.568C21.3767 17.328 20.6567 17.104 19.7447 16.896C18.5927 16.624 17.6687 16.304 16.9727 15.936C16.2847 15.56 15.7847 15.092 15.4727 14.532C15.1687 13.972 15.0167 13.276 15.0167 12.444V12.336C15.0167 11.08 15.4287 10.112 16.2527 9.432C17.0767 8.744 18.3247 8.4 19.9967 8.4C21.0927 8.4 22.0247 8.512 22.7927 8.736C23.5687 8.96 24.2007 9.208 24.6887 9.48L24.8687 11.304C24.3007 10.968 23.6367 10.684 22.8767 10.452C22.1247 10.212 21.2607 10.092 20.2847 10.092C19.5087 10.092 18.8807 10.184 18.4007 10.368C17.9207 10.552 17.5727 10.816 17.3567 11.16C17.1407 11.504 17.0327 11.92 17.0327 12.408V12.456C17.0327 12.952 17.1367 13.376 17.3447 13.728C17.5607 14.08 17.9327 14.384 18.4607 14.64C18.9967 14.896 19.7567 15.144 20.7407 15.384C21.8687 15.648 22.7727 15.952 23.4527 16.296C24.1327 16.64 24.6247 17.088 24.9287 17.64C25.2407 18.192 25.3967 18.912 25.3967 19.8V20.052C25.3967 21.436 24.9487 22.488 24.0527 23.208C23.1647 23.92 21.8327 24.276 20.0567 24.276ZM32.9923 24.264C31.2083 24.264 29.8643 23.828 28.9603 22.956C28.0563 22.084 27.6043 20.836 27.6043 19.212V17.124C27.6043 15.476 28.0243 14.208 28.8643 13.32C29.7043 12.424 30.9323 11.976 32.5483 11.976C33.6363 11.976 34.5443 12.18 35.2723 12.588C36.0003 12.988 36.5483 13.56 36.9163 14.304C37.2843 15.048 37.4683 15.936 37.4683 16.968V17.4C37.4683 17.656 37.4563 17.912 37.4323 18.168C37.4163 18.424 37.3923 18.676 37.3603 18.924H35.5723C35.5883 18.54 35.5963 18.176 35.5963 17.832C35.6043 17.488 35.6083 17.172 35.6083 16.884C35.6083 16.172 35.4923 15.572 35.2603 15.084C35.0363 14.588 34.6963 14.212 34.2403 13.956C33.7923 13.692 33.2283 13.56 32.5483 13.56C31.5403 13.56 30.7843 13.852 30.2803 14.436C29.7763 15.02 29.5243 15.856 29.5243 16.944V18.06L29.5363 18.3V19.416C29.5363 19.904 29.6083 20.344 29.7523 20.736C29.8963 21.128 30.1203 21.468 30.4243 21.756C30.7363 22.036 31.1283 22.252 31.6003 22.404C32.0803 22.548 32.6483 22.62 33.3043 22.62C34.0643 22.62 34.7723 22.52 35.4283 22.32C36.0843 22.12 36.7003 21.848 37.2763 21.504L37.0963 23.184C36.5763 23.512 35.9723 23.776 35.2843 23.976C34.5963 24.168 33.8323 24.264 32.9923 24.264ZM28.6243 18.924V17.46H36.9523V18.924H28.6243ZM44.9454 24.264C43.1614 24.264 41.8174 23.828 40.9134 22.956C40.0094 22.084 39.5574 20.836 39.5574 19.212V17.124C39.5574 15.476 39.9774 14.208 40.8174 13.32C41.6574 12.424 42.8854 11.976 44.5014 11.976C45.5894 11.976 46.4974 12.18 47.2254 12.588C47.9534 12.988 48.5014 13.56 48.8694 14.304C49.2374 15.048 49.4214 15.936 49.4214 16.968V17.4C49.4214 17.656 49.4094 17.912 49.3854 18.168C49.3694 18.424 49.3454 18.676 49.3134 18.924H47.5254C47.5414 18.54 47.5494 18.176 47.5494 17.832C47.5574 17.488 47.5614 17.172 47.5614 16.884C47.5614 16.172 47.4454 15.572 47.2134 15.084C46.9894 14.588 46.6494 14.212 46.1934 13.956C45.7454 13.692 45.1814 13.56 44.5014 13.56C43.4934 13.56 42.7374 13.852 42.2334 14.436C41.7294 15.02 41.4774 15.856 41.4774 16.944V18.06L41.4894 18.3V19.416C41.4894 19.904 41.5614 20.344 41.7054 20.736C41.8494 21.128 42.0734 21.468 42.3774 21.756C42.6894 22.036 43.0814 22.252 43.5534 22.404C44.0334 22.548 44.6014 22.62 45.2574 22.62C46.0174 22.62 46.7254 22.52 47.3814 22.32C48.0374 22.12 48.6534 21.848 49.2294 21.504L49.0494 23.184C48.5294 23.512 47.9254 23.776 47.2374 23.976C46.5494 24.168 45.7854 24.264 44.9454 24.264ZM40.5774 18.924V17.46H48.9054V18.924H40.5774ZM58.6577 24L59.2457 8.664H62.3297L65.9657 19.752H66.1337L69.7697 8.664H72.8657L73.4537 24H71.5217L71.3057 17.532L71.1017 10.74H70.8857L67.0937 22.236H65.0177L61.2257 10.74H61.0097L60.7937 17.544L60.5897 24H58.6577ZM81.197 24.3C79.517 24.3 78.241 23.848 77.369 22.944C76.505 22.032 76.073 20.724 76.073 19.02V17.232C76.073 15.536 76.509 14.236 77.381 13.332C78.253 12.428 79.525 11.976 81.197 11.976C82.877 11.976 84.149 12.428 85.013 13.332C85.885 14.236 86.321 15.536 86.321 17.232V19.02C86.321 20.724 85.885 22.032 85.013 22.944C84.149 23.848 82.877 24.3 81.197 24.3ZM81.197 22.716C82.237 22.716 83.025 22.408 83.561 21.792C84.105 21.176 84.377 20.288 84.377 19.128V17.124C84.377 15.972 84.105 15.092 83.561 14.484C83.025 13.868 82.237 13.56 81.197 13.56C80.165 13.56 79.377 13.868 78.833 14.484C78.289 15.092 78.017 15.972 78.017 17.124V19.128C78.017 20.288 78.289 21.176 78.833 21.792C79.377 22.408 80.165 22.716 81.197 22.716ZM90.8578 16.836L90.4138 15.336L90.8938 15.312C91.1498 14.32 91.5898 13.54 92.2138 12.972C92.8378 12.396 93.6658 12.108 94.6978 12.108C94.9538 12.108 95.1818 12.128 95.3818 12.168C95.5898 12.208 95.7738 12.256 95.9338 12.312L96.0538 14.196C95.8538 14.132 95.6298 14.08 95.3818 14.04C95.1418 14 94.8738 13.98 94.5778 13.98C93.6978 13.98 92.9298 14.224 92.2738 14.712C91.6258 15.2 91.1538 15.908 90.8578 16.836ZM89.0098 24V12.288H90.9058L90.8098 15.744L90.9538 15.888V24H89.0098ZM102.555 24.264C100.771 24.264 99.4268 23.828 98.5228 22.956C97.6188 22.084 97.1668 20.836 97.1668 19.212V17.124C97.1668 15.476 97.5868 14.208 98.4268 13.32C99.2668 12.424 100.495 11.976 102.111 11.976C103.199 11.976 104.107 12.18 104.835 12.588C105.563 12.988 106.111 13.56 106.479 14.304C106.847 15.048 107.031 15.936 107.031 16.968V17.4C107.031 17.656 107.019 17.912 106.995 18.168C106.979 18.424 106.955 18.676 106.923 18.924H105.135C105.151 18.54 105.159 18.176 105.159 17.832C105.167 17.488 105.171 17.172 105.171 16.884C105.171 16.172 105.055 15.572 104.823 15.084C104.599 14.588 104.259 14.212 103.803 13.956C103.355 13.692 102.791 13.56 102.111 13.56C101.103 13.56 100.347 13.852 99.8428 14.436C99.3388 15.02 99.0868 15.856 99.0868 16.944V18.06L99.0988 18.3V19.416C99.0988 19.904 99.1708 20.344 99.3148 20.736C99.4588 21.128 99.6828 21.468 99.9868 21.756C100.299 22.036 100.691 22.252 101.163 22.404C101.643 22.548 102.211 22.62 102.867 22.62C103.627 22.62 104.335 22.52 104.991 22.32C105.647 22.12 106.263 21.848 106.839 21.504L106.659 23.184C106.139 23.512 105.535 23.776 104.847 23.976C104.159 24.168 103.395 24.264 102.555 24.264ZM98.1868 18.924V17.46H106.515V18.924H98.1868Z" fill="black"/>
<path d="M152.797 15.2071C153.187 14.8166 153.187 14.1834 152.797 13.7929L146.433 7.42893C146.042 7.03841 145.409 7.03841 145.019 7.42893C144.628 7.81946 144.628 8.45262 145.019 8.84315L150.676 14.5L145.019 20.1569C144.628 20.5474 144.628 21.1805 145.019 21.5711C145.409 21.9616 146.042 21.9616 146.433 21.5711L152.797 15.2071ZM126.91 15.5H152.09V13.5H126.91V15.5Z" fill="black"/>
<line x1="0.990066" y1="33.5" x2="151.99" y2="32.5" stroke="black" stroke-width="3"/>
</svg>
