<svg width="116" height="117" viewBox="0 0 116 117" fill="none" xmlns="http://www.w3.org/2000/svg">
<g filter="url(#filter0_d_0_1)">
<path d="M108 54.6437C108 82.2579 85.6142 104.644 58 104.644C30.3858 104.644 8 82.2579 8 54.6437C8 27.0295 30.3858 4.64371 58 4.64371C85.6142 4.64371 108 27.0295 108 54.6437Z" fill="#98C8EC"/>
<path d="M58 106.644C86.7188 106.644 110 83.3625 110 54.6437C110 25.9249 86.7188 2.64371 58 2.64371C29.2812 2.64371 6 25.9249 6 54.6437C6 83.3625 29.2812 106.644 58 106.644Z" stroke="white" stroke-width="4"/>
</g>
<path d="M32.8489 45.5022L30.8904 45.8658L28.0909 30.7875L30.0495 30.4239L32.8489 45.5022ZM31.6316 44.0073L39.5837 42.5309L39.8926 44.1944L31.9405 45.6709L31.6316 44.0073ZM46.1063 43.3459C44.4545 43.6526 43.1174 43.4411 42.0951 42.7115C41.0791 41.9725 40.4156 40.7654 40.1045 39.09L39.7782 37.332C39.4686 35.6645 39.6599 34.3068 40.3523 33.2588C41.0446 32.2108 42.2127 31.5342 43.8566 31.229C45.5084 30.9223 46.8415 31.1345 47.856 31.8656C48.8784 32.5953 49.5444 33.7938 49.854 35.4613L50.1803 37.2193C50.4914 38.8947 50.3015 40.2603 49.6106 41.3161C48.9262 42.3626 47.758 43.0392 46.1063 43.3459ZM45.8171 41.7885C46.8396 41.5987 47.5582 41.152 47.9727 40.4485C48.3951 39.7436 48.5005 38.8208 48.2887 37.6803L47.9229 35.71C47.7126 34.5774 47.2846 33.7618 46.6387 33.2633C45.9993 32.7555 45.1683 32.5965 44.1458 32.7864C43.1311 32.9748 42.4126 33.4214 41.9901 34.1264C41.5663 34.8235 41.4595 35.7383 41.6698 36.871L42.0356 38.8413C42.2473 39.9818 42.6769 40.8052 43.3242 41.3116C43.9715 41.8179 44.8025 41.9769 45.8171 41.7885ZM57.5537 37.3516C55.9884 37.6422 54.7215 37.5234 53.7528 36.9954C52.792 36.4659 52.1933 35.564 51.9568 34.2898L51.902 33.9948C51.7545 33.2004 51.7872 32.4783 52.0002 31.8285C52.221 31.1773 52.6587 30.62 53.3131 30.1568C53.9661 29.6857 54.8677 29.327 56.0181 29.0809L61.8587 27.8012L62.1391 29.3114L58.6484 29.8375L58.652 29.9222C59.2151 29.9316 59.6946 30.0379 60.0903 30.241C60.4861 30.4442 60.8038 30.731 61.0434 31.1015C61.2909 31.4705 61.4644 31.9225 61.5637 32.4573L61.6119 32.7169C61.8382 33.9361 61.6101 34.9426 60.9276 35.7365C60.2436 36.5226 59.1189 37.0609 57.5537 37.3516ZM58.6496 43.7144L58.921 43.664C59.6289 43.5326 60.2243 43.3651 60.7072 43.1615C61.1995 42.9643 61.5621 42.7261 61.7951 42.4469C62.028 42.1677 62.1095 41.8393 62.0394 41.4618L62.0306 41.4146C61.9488 40.9741 61.7248 40.6658 61.3585 40.4897C61.0015 40.3201 60.431 40.2714 59.6471 40.3437L56.3359 40.6533L56.8743 40.529C56.4455 40.6737 56.0751 40.8482 55.7632 41.0526C55.4591 41.2555 55.2339 41.4885 55.0875 41.7517C54.9425 42.0227 54.9021 42.3312 54.9664 42.6773L54.9708 42.7009C55.0453 43.1021 55.2428 43.399 55.5634 43.5917C55.8839 43.7844 56.3054 43.8852 56.8278 43.894C57.3502 43.9028 57.9574 43.8429 58.6496 43.7144ZM58.826 45.2561C57.7877 45.4489 56.8743 45.5249 56.0856 45.4842C55.3062 45.4499 54.6709 45.2709 54.1795 44.9471C53.6975 44.6298 53.3944 44.1368 53.2703 43.4682L53.2615 43.421C53.1739 42.9491 53.211 42.5354 53.3728 42.1799C53.5425 41.8229 53.7993 41.5189 54.1433 41.2679C54.4951 41.0154 54.9012 40.8139 55.3614 40.6634L55.3365 40.5948C54.671 40.6044 54.1601 40.504 53.8037 40.2935C53.4459 40.0752 53.2268 39.7497 53.1464 39.3171L53.1442 39.3053C53.0888 39.0064 53.1082 38.7384 53.2024 38.5012C53.3046 38.2625 53.4816 38.0547 53.7336 37.8777C53.9934 37.6993 54.3366 37.5542 54.7634 37.4424L54.7196 37.2065L57.017 37.3536L56.116 37.4964C55.5826 37.6036 55.2253 37.7391 55.0442 37.9029C54.8616 38.0589 54.7929 38.2588 54.8382 38.5026L54.8404 38.5144C54.8886 38.774 55.0706 38.9436 55.3864 39.0233C55.7023 39.1029 56.2175 39.1171 56.9322 39.0658L59.781 38.8298C61.0235 38.7293 61.9671 38.8593 62.6117 39.2196C63.2548 39.5722 63.6597 40.1968 63.8261 41.0934L63.8371 41.1524C63.97 41.8682 63.8664 42.4936 63.5264 43.0287C63.1863 43.5637 62.6459 44.0058 61.9052 44.3549C61.166 44.7118 60.2536 44.9911 59.1681 45.1926L58.826 45.2561ZM57.2672 35.9401C57.9279 35.8175 58.4571 35.6216 58.8546 35.3525C59.2586 35.0741 59.5349 34.7217 59.6836 34.2954C59.8387 33.8598 59.8637 33.3588 59.7585 32.7925L59.7059 32.5093C59.6037 31.9587 59.4067 31.5112 59.1149 31.1666C58.831 30.8207 58.4545 30.5895 57.9853 30.4732C57.5148 30.349 56.9531 30.3475 56.3002 30.4687L56.2294 30.4819C55.5215 30.6133 54.9639 30.8307 54.5564 31.1342C54.1554 31.4284 53.8891 31.7911 53.7576 32.2223C53.6325 32.6442 53.6182 33.1148 53.7146 33.6339L53.7649 33.9053C53.8701 34.4716 54.0686 34.927 54.3603 35.2715C54.66 35.6146 55.0523 35.8428 55.5371 35.9562C56.022 36.0696 56.5987 36.0643 57.2672 35.9401ZM65.8433 39.3764L63.7053 27.8612L65.6167 27.5063L67.7546 39.0215L65.8433 39.3764ZM64.3105 25.796C63.9172 25.869 63.6033 25.8215 63.3687 25.6535C63.1405 25.4762 62.9928 25.2066 62.9256 24.8448L62.9147 24.7858C62.846 24.4161 62.8871 24.1115 63.0379 23.872C63.1966 23.6309 63.4726 23.4739 63.8658 23.4009C64.2591 23.3279 64.5731 23.3754 64.8077 23.5434C65.0423 23.7114 65.1939 23.9802 65.2625 24.3499L65.2735 24.4089C65.3421 24.7786 65.2971 25.0839 65.1384 25.3249C64.9798 25.566 64.7038 25.723 64.3105 25.796ZM78.6279 37.0027L77.2983 29.8411C77.1829 29.2197 76.9971 28.701 76.7408 28.2847C76.4924 27.8671 76.1528 27.5721 75.7222 27.3998C75.2979 27.2182 74.7554 27.1888 74.0947 27.3114C73.489 27.4239 72.9832 27.6358 72.5772 27.9471C72.1791 28.257 71.8789 28.6341 71.6766 29.0785C71.4729 29.515 71.3619 29.9913 71.3438 30.5073L70.7498 29.214L71.1627 29.1373C71.1922 28.5948 71.3248 28.082 71.5606 27.5988C71.7949 27.1078 72.1521 26.6875 72.6324 26.338C73.1191 25.9791 73.7478 25.7281 74.5187 25.585C75.4311 25.4156 76.1986 25.4521 76.8213 25.6945C77.4519 25.9355 77.9576 26.3583 78.3384 26.9629C78.7177 27.5597 78.9949 28.33 79.1702 29.2739L80.5393 36.6479L78.6279 37.0027ZM70.9236 38.4331L68.7856 26.9179L70.697 26.5631L71.127 29.3392L71.2293 29.4301L72.8349 38.0783L70.9236 38.4331Z" fill="#285E93"/>
<path d="M33.7293 85.8449C33.0088 85.9953 32.3348 86.0747 31.7073 86.0831C31.0876 86.0898 30.5249 86.0561 30.019 85.9819C29.5132 85.9077 29.0857 85.8172 28.7364 85.7103L28.1321 83.8138C28.8103 84.0481 29.5853 84.2173 30.4569 84.3214C31.3348 84.416 32.2553 84.3628 33.2186 84.1617C34.3776 83.9198 35.1926 83.5371 35.6636 83.0138C36.133 82.4827 36.2818 81.806 36.1102 80.9838L36.071 80.7958C35.9582 80.2555 35.7562 79.8359 35.4649 79.5371C35.1737 79.2383 34.7413 79.0262 34.1675 78.9008C33.6016 78.7737 32.8511 78.7016 31.9158 78.6843C30.7325 78.6535 29.7626 78.5291 29.0061 78.311C28.2558 78.0836 27.6707 77.7276 27.2509 77.2432C26.8389 76.7571 26.5478 76.1069 26.3778 75.2924L26.3557 75.1867C26.0991 73.9572 26.3046 72.9254 26.9722 72.0914C27.6383 71.2496 28.7896 70.6578 30.4264 70.3161C31.4992 70.0922 32.4344 70.0113 33.232 70.0737C34.0374 70.1344 34.7068 70.248 35.24 70.4145L35.789 72.1633C35.1643 71.9504 34.4563 71.8081 33.6649 71.7363C32.8797 71.655 32.0094 71.7141 31.054 71.9136C30.2944 72.0721 29.6985 72.2905 29.2662 72.5687C28.8339 72.8469 28.5472 73.1765 28.4061 73.5574C28.2649 73.9382 28.2442 74.3675 28.3439 74.8452L28.3537 74.8922C28.4551 75.3777 28.6435 75.7716 28.9191 76.0736C29.2024 76.3741 29.6287 76.5956 30.1979 76.7383C30.7749 76.8794 31.5695 76.9669 32.5818 77.0007C33.74 77.0286 34.687 77.1415 35.4229 77.3393C36.1589 77.5371 36.7321 77.8751 37.1424 78.3533C37.5607 78.8299 37.8605 79.5028 38.042 80.3721L38.0935 80.6188C38.3763 81.9736 38.1527 83.0949 37.4227 83.9828C36.699 84.8613 35.4678 85.4819 33.7293 85.8449ZM41.5317 83.9341L39.1384 72.4693L41.0414 72.072L43.4347 83.5369L41.5317 83.9341ZM39.6975 70.3912C39.306 70.4729 38.991 70.4324 38.7528 70.2697C38.5207 70.0975 38.367 69.8312 38.2918 69.471L38.2796 69.4123C38.2027 69.0442 38.237 68.7388 38.3825 68.4959C38.5357 68.2514 38.8082 68.0883 39.1997 68.0066C39.5913 67.9248 39.9062 67.9653 40.1445 68.1281C40.3828 68.2908 40.5403 68.5562 40.6172 68.9243L40.6294 68.983C40.7063 69.3511 40.668 69.6574 40.5148 69.9018C40.3615 70.1463 40.0891 70.3094 39.6975 70.3912ZM50.3375 78.5164C48.7791 78.8417 47.5098 78.7512 46.5297 78.2448C45.5573 77.7367 44.9387 76.8484 44.6739 75.5798L44.6126 75.2861C44.4475 74.4951 44.4642 73.7725 44.6627 73.1181C44.869 72.4621 45.2941 71.8953 45.9381 71.4176C46.5804 70.9321 47.4739 70.5535 48.6186 70.2819L54.4292 68.8728L54.7431 70.3764L51.265 70.9798L51.2704 71.0645C51.8337 71.0613 52.3154 71.1569 52.7155 71.3512C53.1157 71.5456 53.4397 71.8253 53.6875 72.1903C53.9432 72.5538 54.1266 73.0017 54.2377 73.5343L54.2917 73.7927C54.5451 75.0065 54.3394 76.0179 53.6747 76.8268C53.0083 77.6279 51.8959 78.1911 50.3375 78.5164ZM51.5746 84.8533L51.8447 84.7969C52.5495 84.6498 53.1411 84.4691 53.6194 84.2548C54.1072 84.0468 54.4644 83.8006 54.6911 83.5162C54.9178 83.2319 54.9919 82.9018 54.9134 82.5259L54.9036 82.4789C54.8121 82.0404 54.5812 81.7372 54.2111 81.5692C53.8504 81.4075 53.279 81.3715 52.4969 81.4613L49.1934 81.8444L49.7289 81.7081C49.3034 81.8623 48.937 82.045 48.6297 82.2563C48.3302 82.4659 48.1102 82.7039 47.9697 82.9702C47.8308 83.2444 47.7973 83.5538 47.8692 83.8983L47.8741 83.9218C47.9575 84.3212 48.1616 84.6137 48.4863 84.7992C48.8111 84.9848 49.2347 85.0762 49.7572 85.0733C50.2796 85.0705 50.8854 84.9972 51.5746 84.8533ZM51.7852 86.3907C50.7514 86.6065 49.8399 86.7028 49.0505 86.6796C48.2706 86.6627 47.6314 86.4978 47.133 86.185C46.644 85.8785 46.33 85.3924 46.1911 84.7267L46.1813 84.6798C46.0832 84.2099 46.1111 83.7954 46.265 83.4364C46.4267 83.0758 46.6767 82.7661 47.015 82.5075C47.3611 82.2473 47.7626 82.0368 48.2194 81.8761L48.1929 81.8081C47.5279 81.8325 47.0148 81.7435 46.6538 81.5409C46.2912 81.3306 46.0649 81.0101 45.975 80.5794L45.9726 80.5676C45.9105 80.27 45.9239 80.0016 46.0129 79.7624C46.1097 79.5215 46.2821 79.3098 46.53 79.1273C46.7858 78.9432 47.1258 78.7905 47.5499 78.6692L47.5009 78.4343L49.801 78.5303L48.9034 78.6932C48.3725 78.8122 48.0183 78.9556 47.8409 79.1234C47.6618 79.2833 47.5976 79.4847 47.6483 79.7275L47.6507 79.7392C47.7047 79.9977 47.8904 80.1632 48.2079 80.2358C48.5255 80.3085 49.0409 80.3112 49.7542 80.244L52.5971 79.9448C53.8371 79.8167 54.7833 79.9256 55.4358 80.2716C56.0866 80.6097 56.5052 81.2252 56.6916 82.118L56.7038 82.1767C56.8526 82.8893 56.7629 83.5169 56.4349 84.0594C56.1068 84.6019 55.5764 85.0558 54.8436 85.4213C54.1124 85.7946 53.2065 86.094 52.1258 86.3196L51.7852 86.3907ZM50.0198 77.1117C50.6776 76.9744 51.2022 76.7668 51.5937 76.4889C51.9914 76.2016 52.2598 75.8432 52.399 75.4137C52.5444 74.9747 52.5582 74.4733 52.4405 73.9094L52.3816 73.6275C52.2672 73.0793 52.0603 72.6363 51.7609 72.2983C51.4694 71.9587 51.0878 71.736 50.6162 71.6301C50.143 71.5164 49.5814 71.5274 48.9314 71.6631L48.8609 71.6778C48.1561 71.8249 47.6034 72.0547 47.2028 72.3672C46.8084 72.6702 46.5503 73.0387 46.4284 73.4728C46.3127 73.8974 46.3088 74.3681 46.4167 74.885L46.4731 75.1551C46.5908 75.719 46.7994 76.1699 47.0987 76.5078C47.4059 76.8442 47.8032 77.0636 48.2904 77.1662C48.7777 77.2688 49.3541 77.2506 50.0198 77.1117ZM66.3055 78.7626L64.817 71.6323C64.6879 71.0136 64.4905 70.4991 64.2251 70.0887C63.9674 69.6766 63.6214 69.3893 63.187 69.2266C62.7588 69.0545 62.2158 69.0371 61.558 69.1744C60.955 69.3003 60.454 69.5234 60.055 69.8436C59.6639 70.1623 59.3721 70.546 59.1798 70.9948C58.9858 71.4357 58.8855 71.9143 58.8788 72.4306L58.2562 71.1508L58.6673 71.065C58.6847 70.522 58.8059 70.0063 59.0309 69.518C59.2542 69.0219 59.6021 68.5938 60.0744 68.2337C60.553 67.8641 61.176 67.5992 61.9435 67.439C62.8519 67.2494 63.6201 67.2688 64.248 67.4973C64.8838 67.7242 65.3987 68.1356 65.7929 68.7317C66.1853 69.3199 66.4797 70.0839 66.6758 71.0236L68.2084 78.3653L66.3055 78.7626ZM58.6348 80.3638L56.2415 68.899L58.1445 68.5017L58.6361 71.2676L58.7404 71.3562L60.5378 79.9666L58.6348 80.3638ZM70.5186 65.9186L72.0071 73.0489C72.133 73.6519 72.3255 74.1634 72.5848 74.5832C72.8503 74.9936 73.201 75.2841 73.6371 75.4546C74.0715 75.6173 74.6137 75.6307 75.2637 75.4951C75.8745 75.3675 76.3763 75.1484 76.7691 74.8376C77.1602 74.5189 77.452 74.1352 77.6443 73.6864C77.8445 73.236 77.944 72.7535 77.9428 72.2389L78.5655 73.5186L78.1543 73.6045C78.1447 74.1458 78.0283 74.6646 77.805 75.1607C77.58 75.649 77.2282 76.0779 76.7496 76.4475C76.2773 76.8076 75.6534 77.0686 74.8781 77.2305C73.9776 77.4185 73.2102 77.4029 72.5761 77.1839C71.9481 76.9554 71.4371 76.5431 71.043 75.9471C70.6472 75.3432 70.3529 74.5792 70.16 73.6552L68.6274 66.3134L70.5186 65.9186ZM78.1893 64.3174L80.5826 75.7822L78.6796 76.1795L78.188 73.4136L78.0813 73.3132L76.2863 64.7146L78.1893 64.3174ZM89.3902 74.201C88.6854 74.3482 88.05 74.3582 87.4841 74.2312C86.9182 74.1041 86.429 73.8549 86.0163 73.4833C85.6037 73.1118 85.2821 72.6477 85.0515 72.0911L84.4289 72.2211L84.6083 70.3203C84.7835 71.0029 85.0563 71.5466 85.4269 71.9515C85.8036 72.3468 86.2545 72.6082 86.7796 72.7356C87.3048 72.863 87.8688 72.8637 88.4718 72.7378C89.4351 72.5368 90.1123 72.1012 90.5037 71.4311C90.9028 70.7593 90.9888 69.8792 90.7615 68.7906L90.303 66.594C90.0774 65.5133 89.6512 64.7441 89.0245 64.2866C88.3978 63.829 87.5989 63.7015 86.6278 63.9043C86.0483 64.0252 85.559 64.2459 85.1601 64.5661C84.7611 64.8864 84.4537 65.2734 84.2379 65.7271C84.0298 66.1791 83.9233 66.6672 83.9183 67.1913L83.1713 65.962L83.7234 65.8467C83.7392 65.2959 83.8518 64.778 84.0611 64.293C84.2766 63.7985 84.6205 63.3712 85.0929 63.0111C85.5715 62.6415 86.1984 62.3757 86.9737 62.2139C88.352 61.9262 89.4913 62.1378 90.3916 62.8489C91.2902 63.5521 91.9096 64.7181 92.2496 66.347L92.6468 68.25C92.9901 69.8945 92.8876 71.2235 92.3391 72.237C91.7984 73.2488 90.8155 73.9035 89.3902 74.201ZM84.532 79.1747L81.2952 63.669L83.1982 63.2717L83.6922 66.0494L83.8383 66.6318L84.8461 71.4598L84.9153 71.8499L85.6459 75.0562L86.4233 78.7799L84.532 79.1747Z" fill="#285E93"/>
<line x1="8.40539" y1="63.567" x2="106.906" y2="46.1987" stroke="#285E93" stroke-width="4"/>
<defs>
<filter id="filter0_d_0_1" x="0" y="0.643677" width="116" height="116" filterUnits="userSpaceOnUse" color-interpolation-filters="sRGB">
<feFlood flood-opacity="0" result="BackgroundImageFix"/>
<feColorMatrix in="SourceAlpha" type="matrix" values="0 0 0 0 0 0 0 0 0 0 0 0 0 0 0 0 0 0 127 0" result="hardAlpha"/>
<feOffset dy="4"/>
<feGaussianBlur stdDeviation="2"/>
<feComposite in2="hardAlpha" operator="out"/>
<feColorMatrix type="matrix" values="0 0 0 0 0 0 0 0 0 0 0 0 0 0 0 0 0 0 0.25 0"/>
<feBlend mode="normal" in2="BackgroundImageFix" result="effect1_dropShadow_0_1"/>
<feBlend mode="normal" in="SourceGraphic" in2="effect1_dropShadow_0_1" result="shape"/>
</filter>
</defs>
</svg>
