<svg width="102" height="20" viewBox="0 0 102 20" fill="none" xmlns="http://www.w3.org/2000/svg">
<path d="M10 0L12.2451 6.90983H19.5106L13.6327 11.1803L15.8779 18.0902L10 13.8197L4.12215 18.0902L6.36729 11.1803L0.489435 6.90983H7.75486L10 0Z" fill="#FEC301"/>
<path d="M30 0L32.2451 6.90983H39.5106L33.6327 11.1803L35.8779 18.0902L30 13.8197L24.1221 18.0902L26.3673 11.1803L20.4894 6.90983H27.7549L30 0Z" fill="#FEC301"/>
<path d="M51 0L53.2451 6.90983H60.5106L54.6327 11.1803L56.8779 18.0902L51 13.8197L45.1221 18.0902L47.3673 11.1803L41.4894 6.90983H48.7549L51 0Z" fill="#FEC301"/>
<path d="M72 0L74.2451 6.90983H81.5106L75.6327 11.1803L77.8779 18.0902L72 13.8197L66.1221 18.0902L68.3673 11.1803L62.4894 6.90983H69.7549L72 0Z" fill="#FEC301"/>
<path d="M92 0L94.2451 6.90983H101.511L95.6327 11.1803L97.8779 18.0902L92 13.8197L86.1221 18.0902L88.3673 11.1803L82.4894 6.90983H89.7549L92 0Z" fill="#FEC301"/>
</svg>
