<svg width="66" height="66" viewBox="0 0 66 66" fill="none" xmlns="http://www.w3.org/2000/svg">
<g filter="url(#filter0_d_4_87)">
<circle cx="29" cy="29" r="29" transform="matrix(-1 0 0 1 62 0)" fill="#EFEFEF"/>
<path d="M19.2929 29.7071C18.9024 29.3166 18.9024 28.6834 19.2929 28.2929L25.6569 21.9289C26.0474 21.5384 26.6805 21.5384 27.0711 21.9289C27.4616 22.3195 27.4616 22.9526 27.0711 23.3431L21.4142 29L27.0711 34.6569C27.4616 35.0474 27.4616 35.6805 27.0711 36.0711C26.6805 36.4616 26.0474 36.4616 25.6569 36.0711L19.2929 29.7071ZM45 30H20V28H45V30Z" fill="#333333"/>
</g>
<defs>
<filter id="filter0_d_4_87" x="0" y="0" width="66" height="66" filterUnits="userSpaceOnUse" color-interpolation-filters="sRGB">
<feFlood flood-opacity="0" result="BackgroundImageFix"/>
<feColorMatrix in="SourceAlpha" type="matrix" values="0 0 0 0 0 0 0 0 0 0 0 0 0 0 0 0 0 0 127 0" result="hardAlpha"/>
<feOffset dy="4"/>
<feGaussianBlur stdDeviation="2"/>
<feComposite in2="hardAlpha" operator="out"/>
<feColorMatrix type="matrix" values="0 0 0 0 0 0 0 0 0 0 0 0 0 0 0 0 0 0 0.25 0"/>
<feBlend mode="normal" in2="BackgroundImageFix" result="effect1_dropShadow_4_87"/>
<feBlend mode="normal" in="SourceGraphic" in2="effect1_dropShadow_4_87" result="shape"/>
</filter>
</defs>
</svg>
