<svg width="239" height="67" viewBox="0 0 239 67" fill="none" xmlns="http://www.w3.org/2000/svg">
<g filter="url(#filter0_d_0_1)">
<rect x="4" width="231" height="59" rx="27" fill="#F48888"/>
</g>
<path d="M72.1405 38.3645C69.8005 38.3645 68.05 37.73 66.889 36.461C65.737 35.192 65.161 33.3875 65.161 31.0475V27.6455C65.161 25.3235 65.737 23.5325 66.889 22.2725C68.05 21.0125 69.796 20.3825 72.127 20.3825C72.793 20.3825 73.4005 20.4365 73.9495 20.5445C74.4985 20.6525 74.9935 20.7965 75.4345 20.9765C75.8845 21.1475 76.276 21.3365 76.609 21.5435L76.879 24.662C76.348 24.338 75.7495 24.059 75.0835 23.825C74.4175 23.591 73.639 23.474 72.748 23.474C71.416 23.474 70.4215 23.8475 69.7645 24.5945C69.1075 25.3415 68.779 26.3945 68.779 27.7535V30.9125C68.779 32.2625 69.112 33.3155 69.778 34.0715C70.444 34.8185 71.4745 35.192 72.8695 35.192C73.7425 35.192 74.5165 35.075 75.1915 34.841C75.8665 34.607 76.474 34.319 77.014 33.977L76.744 37.1495C76.42 37.3565 76.0285 37.5545 75.5695 37.7435C75.1105 37.9235 74.593 38.072 74.017 38.189C73.45 38.306 72.8245 38.3645 72.1405 38.3645ZM82.7426 30.305L81.8651 27.9965H82.7021C82.9451 26.9255 83.3861 26.084 84.0251 25.472C84.6641 24.86 85.5506 24.554 86.6846 24.554C86.9186 24.554 87.1301 24.572 87.3191 24.608C87.5081 24.635 87.6791 24.671 87.8321 24.716L88.0211 28.172C87.8231 28.109 87.5936 28.064 87.3326 28.037C87.0716 28.001 86.7971 27.983 86.5091 27.983C85.5911 27.983 84.8081 28.1855 84.1601 28.5905C83.5211 28.9955 83.0486 29.567 82.7426 30.305ZM79.3811 38V24.7565H82.6751L82.5266 28.82L82.8371 28.9415V38H79.3811ZM95.8351 38.324C93.5671 38.324 91.8796 37.802 90.7726 36.758C89.6656 35.714 89.1121 34.202 89.1121 32.222V30.494C89.1121 28.532 89.6296 27.0245 90.6646 25.9715C91.6996 24.9185 93.2026 24.392 95.1736 24.392C96.5056 24.392 97.6171 24.626 98.5081 25.094C99.3991 25.562 100.065 26.228 100.506 27.092C100.956 27.947 101.181 28.973 101.181 30.17V30.6425C101.181 30.9665 101.163 31.2995 101.127 31.6415C101.1 31.9745 101.06 32.2895 101.006 32.5865H97.8736C97.9006 32.0915 97.9141 31.6235 97.9141 31.1825C97.9231 30.7325 97.9276 30.3275 97.9276 29.9675C97.9276 29.3465 97.8286 28.82 97.6306 28.388C97.4326 27.947 97.1311 27.614 96.7261 27.389C96.3211 27.164 95.8036 27.0515 95.1736 27.0515C94.2466 27.0515 93.5626 27.308 93.1216 27.821C92.6806 28.334 92.4601 29.063 92.4601 30.008V31.2365L92.4736 31.628V32.6675C92.4736 33.0815 92.5366 33.464 92.6626 33.815C92.7976 34.166 93.0181 34.472 93.3241 34.733C93.6301 34.985 94.0351 35.183 94.5391 35.327C95.0521 35.471 95.6911 35.543 96.4561 35.543C97.2841 35.543 98.0716 35.453 98.8186 35.273C99.5746 35.084 100.29 34.832 100.965 34.517L100.668 37.244C100.065 37.577 99.3541 37.838 98.5351 38.027C97.7251 38.225 96.8251 38.324 95.8351 38.324ZM90.9481 32.5865V30.2915H100.304V32.5865H90.9481ZM111.201 38L111.323 34.76L111.228 34.463V30.3185L111.215 29.7245C111.215 28.8605 110.976 28.226 110.499 27.821C110.031 27.416 109.262 27.2135 108.191 27.2135C107.282 27.2135 106.427 27.335 105.626 27.578C104.834 27.812 104.1 28.0865 103.425 28.4015L103.722 25.6475C104.118 25.4405 104.568 25.247 105.072 25.067C105.585 24.878 106.157 24.725 106.787 24.608C107.417 24.491 108.096 24.4325 108.825 24.4325C109.905 24.4325 110.819 24.563 111.566 24.824C112.313 25.076 112.907 25.4405 113.348 25.9175C113.798 26.3945 114.122 26.966 114.32 27.632C114.518 28.289 114.617 29.018 114.617 29.819V38H111.201ZM106.868 38.3105C105.554 38.3105 104.55 37.982 103.857 37.325C103.173 36.668 102.831 35.732 102.831 34.517V34.139C102.831 32.852 103.227 31.9025 104.019 31.2905C104.811 30.6695 106.067 30.242 107.786 30.008L111.539 29.495L111.741 31.7225L108.285 32.222C107.529 32.321 106.989 32.501 106.665 32.762C106.35 33.023 106.193 33.4055 106.193 33.9095V34.0445C106.193 34.5395 106.346 34.9265 106.652 35.2055C106.967 35.4755 107.457 35.6105 108.123 35.6105C108.717 35.6105 109.226 35.516 109.649 35.327C110.072 35.138 110.418 34.8905 110.688 34.5845C110.967 34.2695 111.165 33.9185 111.282 33.5315L111.768 35.246H111.174C111.03 35.813 110.796 36.3305 110.472 36.7985C110.157 37.2575 109.712 37.6265 109.136 37.9055C108.56 38.1755 107.804 38.3105 106.868 38.3105ZM122.454 38.2835C121.329 38.2835 120.429 38.117 119.754 37.784C119.088 37.442 118.606 36.929 118.309 36.245C118.012 35.561 117.864 34.7195 117.864 33.7205V25.9985H121.293V33.2075C121.293 33.9275 121.455 34.4585 121.779 34.8005C122.112 35.1335 122.692 35.3 123.52 35.3C124.006 35.3 124.474 35.2505 124.924 35.1515C125.374 35.0435 125.788 34.904 126.166 34.733L125.869 37.622C125.419 37.829 124.902 37.991 124.317 38.108C123.741 38.225 123.12 38.2835 122.454 38.2835ZM115.947 27.5915V24.8645H126.045L125.748 27.5915H115.947ZM117.904 25.121L117.891 21.611L121.333 21.26L121.198 25.121H117.904ZM134.147 38.324C131.879 38.324 130.191 37.802 129.084 36.758C127.977 35.714 127.424 34.202 127.424 32.222V30.494C127.424 28.532 127.941 27.0245 128.976 25.9715C130.011 24.9185 131.514 24.392 133.485 24.392C134.817 24.392 135.929 24.626 136.82 25.094C137.711 25.562 138.377 26.228 138.818 27.092C139.268 27.947 139.493 28.973 139.493 30.17V30.6425C139.493 30.9665 139.475 31.2995 139.439 31.6415C139.412 31.9745 139.371 32.2895 139.317 32.5865H136.185C136.212 32.0915 136.226 31.6235 136.226 31.1825C136.235 30.7325 136.239 30.3275 136.239 29.9675C136.239 29.3465 136.14 28.82 135.942 28.388C135.744 27.947 135.443 27.614 135.038 27.389C134.633 27.164 134.115 27.0515 133.485 27.0515C132.558 27.0515 131.874 27.308 131.433 27.821C130.992 28.334 130.772 29.063 130.772 30.008V31.2365L130.785 31.628V32.6675C130.785 33.0815 130.848 33.464 130.974 33.815C131.109 34.166 131.33 34.472 131.636 34.733C131.942 34.985 132.347 35.183 132.851 35.327C133.364 35.471 134.003 35.543 134.768 35.543C135.596 35.543 136.383 35.453 137.13 35.273C137.886 35.084 138.602 34.832 139.277 34.517L138.98 37.244C138.377 37.577 137.666 37.838 136.847 38.027C136.037 38.225 135.137 38.324 134.147 38.324ZM129.26 32.5865V30.2915H138.615V32.5865H129.26Z" fill="white"/>
<line x1="154" y1="29.5323" x2="182" y2="29.5323" stroke="white" stroke-width="3"/>
<line x1="167.636" y1="42.6097" x2="167.636" y2="16.6378" stroke="white" stroke-width="3"/>
<defs>
<filter id="filter0_d_0_1" x="0" y="0" width="239" height="67" filterUnits="userSpaceOnUse" color-interpolation-filters="sRGB">
<feFlood flood-opacity="0" result="BackgroundImageFix"/>
<feColorMatrix in="SourceAlpha" type="matrix" values="0 0 0 0 0 0 0 0 0 0 0 0 0 0 0 0 0 0 127 0" result="hardAlpha"/>
<feOffset dy="4"/>
<feGaussianBlur stdDeviation="2"/>
<feComposite in2="hardAlpha" operator="out"/>
<feColorMatrix type="matrix" values="0 0 0 0 0 0 0 0 0 0 0 0 0 0 0 0 0 0 0.25 0"/>
<feBlend mode="normal" in2="BackgroundImageFix" result="effect1_dropShadow_0_1"/>
<feBlend mode="normal" in="SourceGraphic" in2="effect1_dropShadow_0_1" result="shape"/>
</filter>
</defs>
</svg>
